<svg width="168" height="36" viewBox="0 0 168 36" fill="none" xmlns="http://www.w3.org/2000/svg">
<path d="M28.9233 9.30925H27.6973V15.0007H28.9233V9.30925Z" fill="black"/>
<path d="M18.8369 18.609L17.9699 19.5125L14.1074 15.488L14.9744 14.5845L18.8369 18.609Z" fill="black"/>
<path d="M49.2686 26.0633H43.8066V27.3413H49.2686V26.0633Z" fill="black"/>
<path d="M14.1827 26.0633H8.7207V27.3413H14.1827V26.0633Z" fill="black"/>
<path d="M29.0795 6.22285C16.627 6.22285 6.41905 16.4254 5.74805 29.2289H7.21405C7.88255 17.2659 17.4335 7.74685 29.0795 7.74685C40.7255 7.74685 50.2765 17.2659 50.945 29.2289H52.411C51.74 16.4254 41.532 6.22285 29.0795 6.22285Z" fill="black"/>
<path d="M30.4841 29.589C30.4666 29.1629 30.3242 28.7513 30.0747 28.4055C29.8251 28.0596 29.4795 27.7947 29.0806 27.6437C28.6818 27.4927 28.2473 27.4623 27.8313 27.5562C27.4153 27.6501 27.0361 27.8642 26.7408 28.1719C26.4455 28.4796 26.2471 28.8672 26.1703 29.2868C26.0935 29.7063 26.1418 30.1391 26.309 30.5314C26.4762 30.9237 26.755 31.2583 27.1108 31.4934C27.4666 31.7285 27.8836 31.8539 28.3101 31.854C28.8987 31.8417 29.4583 31.5963 29.866 31.1715C30.2737 30.7468 30.496 30.1776 30.4841 29.589Z" fill="#B2D031"/>
<path d="M30.2188 27.066L31.0858 27.9695L43.0642 15.488L42.1973 14.585L30.2188 27.066Z" fill="#B2D031"/>
<path d="M24.594 17.0483H21.584V20.1842H24.594V17.0483Z" fill="#B2D031"/>
<path d="M28.074 17.0483H25.0645V20.1842H28.074V17.0483Z" fill="#B2D031"/>
<path d="M31.5564 17.0483H28.5469V20.1842H31.5564V17.0483Z" fill="#B2D031"/>
<path d="M35.0373 17.0483H32.0273V20.1842H35.0373V17.0483Z" fill="#B2D031"/>
<path d="M62.6811 4.25636H63.7971L68.6071 15.3324H67.3251L66.0886 12.4259H60.3441L59.0926 15.3324H57.8711L62.6811 4.25636ZM65.6216 11.3104L63.2241 5.70136L60.8116 11.3104H65.6216Z" fill="black"/>
<path d="M70.1445 10.7289V4.33443H71.336V10.6504C71.336 13.0229 72.542 14.3579 74.5625 14.3579C76.507 14.3579 77.7435 13.1324 77.7435 10.7289V4.33443H78.9345V10.6344C78.9345 13.8399 77.171 15.5049 74.532 15.5049C71.9235 15.5049 70.1445 13.8399 70.1445 10.7289Z" fill="black"/>
<path d="M84.545 5.4815H81.002V4.3345H89.2944V5.4815H85.7514V15.332H84.545V5.4815Z" fill="black"/>
<path d="M90.3359 9.865V9.8335C90.3359 6.8015 92.5219 4.146 95.7334 4.146C98.9454 4.146 101.101 6.77002 101.101 9.802C101.116 9.818 101.116 9.818 101.101 9.8335C101.101 12.866 98.9149 15.521 95.7034 15.521C92.4914 15.521 90.3359 12.897 90.3359 9.865ZM99.8644 9.865V9.8335C99.8644 7.3355 98.1154 5.293 95.7034 5.293C93.2914 5.293 91.5719 7.304 91.5719 9.802V9.8335C91.5719 12.332 93.3209 14.3735 95.7334 14.3735C98.1459 14.3735 99.8644 12.3625 99.8644 9.865Z" fill="black"/>
<path d="M103.619 4.3345H104.825L108.67 10.336L112.515 4.3345H113.722V15.332H112.53V6.424L108.685 12.3155H108.625L104.78 6.44V15.332H103.619V4.3345Z" fill="black"/>
<path d="M131.588 5.4815H128.045V4.3345H136.338V5.4815H132.794V15.332H131.588V5.4815Z" fill="black"/>
<path d="M139.867 4.33476H138.676V15.3323H139.867V4.33476Z" fill="black"/>
<path d="M142.053 4.3345H143.379L147.134 13.808L150.903 4.3345H152.184L147.646 15.411H146.591L142.053 4.3345Z" fill="black"/>
<path d="M154.266 4.3345H161.896V5.4655H155.457V9.221H161.217V10.3515H155.457V14.2005H161.971V15.332H154.266V4.3345Z" fill="black"/>
<path d="M117.974 13.133V8.7355H115.859V15.332H122.193V13.133H117.974Z" fill="#2C59C8"/>
<path d="M126.412 4.3345H115.861V7.6335H117.972V6.543H124.302V13.133H123.249V15.332H126.412V4.3345Z" fill="#1E3B86"/>
<path d="M58.4219 23.1862V23.1552C58.4219 20.1937 60.5094 17.5712 63.6184 17.5712C64.3254 17.5418 65.0312 17.6536 65.6946 17.8998C66.358 18.1461 66.9658 18.5221 67.4824 19.0057L66.7274 19.9312C66.3122 19.5233 65.8188 19.2037 65.2768 18.9917C64.7349 18.7796 64.1556 18.6794 63.5739 18.6972C61.2794 18.6972 59.6359 20.7177 59.6359 23.1247V23.1552C59.6359 25.7317 61.2199 27.6442 63.7369 27.6442C64.8281 27.6379 65.884 27.2566 66.7274 26.5642V23.8802H63.5739V22.7852H67.8529V27.0892C66.7229 28.1429 65.2374 28.7322 63.6924 28.7397C60.4354 28.7397 58.4219 26.2712 58.4219 23.1862Z" fill="black"/>
<path d="M69.5996 17.7562H74.0556C74.5942 17.7277 75.1331 17.8087 75.6395 17.9943C76.146 18.18 76.6095 18.4664 77.0021 18.8362C77.5328 19.4162 77.819 20.1788 77.8011 20.9647V20.9957C77.8011 22.7852 76.6171 23.8342 74.9886 24.1427L78.1716 28.5542H76.7351L73.7301 24.3587H70.7691V28.5542H69.5996V17.7562ZM73.9521 23.2632C75.5066 23.2632 76.6171 22.4302 76.6171 21.0417V21.0112C76.6171 19.6842 75.6401 18.8822 73.9671 18.8822H70.7691V23.2632H73.9521Z" fill="black"/>
<path d="M84.1385 17.6788H85.234L89.957 28.5543H88.6985L87.4845 25.7008H81.844L80.615 28.5543H79.416L84.1385 17.6788ZM87.0255 24.6053L84.6715 19.0983L82.3025 24.6053H87.0255Z" fill="black"/>
<path d="M91.4082 17.7558H95.0057C98.2627 17.7558 100.513 20.0858 100.513 23.1243V23.1553C100.529 23.8779 100.396 24.596 100.124 25.2653C99.8511 25.9346 99.4442 26.541 98.9281 27.0469C98.412 27.5528 97.7976 27.9476 97.123 28.2069C96.4484 28.4661 95.7278 28.5844 95.0057 28.5543H91.4082V17.7558ZM92.5777 18.8823V27.4283H95.0057C95.5727 27.4569 96.1394 27.3671 96.6698 27.1647C97.2002 26.9623 97.6827 26.6518 98.0866 26.2528C98.4904 25.8537 98.8068 25.3751 99.0155 24.8471C99.2243 24.3192 99.3209 23.7536 99.2992 23.1863V23.1553C99.3216 22.5864 99.2257 22.0191 99.0176 21.4892C98.8094 20.9592 98.4936 20.4783 98.0901 20.0767C97.6866 19.6751 97.2041 19.3616 96.6732 19.156C96.1423 18.9504 95.5745 18.8572 95.0057 18.8823H92.5777Z" fill="black"/>
<path d="M102.098 17.756H109.589V18.867H103.267V22.5535H108.923V23.664H103.267V27.4435H109.663V28.5545H102.098V17.756Z" fill="black"/>
<path d="M116.236 17.756H118.516V26.395H123.683V28.5545H116.236V17.756Z" fill="#B2D031"/>
<path d="M127.784 17.7563H125.504V28.5548H127.784V17.7563Z" fill="#B2D031"/>
<path d="M130.375 17.756H132.477L137.333 24.405V17.756H139.583V28.5545H137.644L132.626 21.6895V28.5545H130.375V17.756Z" fill="#B2D031"/>
<path d="M141.908 23.9266V17.7561H144.188V23.8651C144.188 25.6236 145.032 26.5336 146.424 26.5336C147.815 26.5336 148.659 25.6541 148.659 23.9421V17.7561H150.939V23.8496C150.939 27.1201 149.177 28.7241 146.394 28.7241C143.611 28.7241 141.908 27.1046 141.908 23.9266Z" fill="#B2D031"/>
<path d="M162.104 17.756L158.639 23.0315L162.252 28.5545H159.587L157.263 24.852L154.923 28.5545H152.332L155.945 23.063L152.481 17.756H155.145L157.307 21.258L159.513 17.756H162.104Z" fill="#B2D031"/>
</svg>
