<svg width="18" height="21" viewBox="0 0 18 21" fill="none" xmlns="http://www.w3.org/2000/svg">
<g clip-path="url(#clip0_148_922)">
<path d="M8.7084 0.845459C8.03476 0.845459 7.49052 1.3897 7.49052 2.06334V2.74459C4.73126 3.18227 2.61899 5.57236 2.61899 8.45722V9.72839C2.61899 11.4563 2.02908 13.1346 0.952019 14.4819L0.384943 15.1936C0.164202 15.4677 0.122337 15.8444 0.274572 16.1603C0.426807 16.4762 0.746501 16.6779 1.09664 16.6779H16.3202C16.6703 16.6779 16.99 16.4762 17.1422 16.1603C17.2945 15.8444 17.2526 15.4677 17.0319 15.1936L16.4648 14.4857C15.3877 13.1346 14.7978 11.4563 14.7978 9.72839V8.45722C14.7978 5.57236 12.6856 3.18227 9.92629 2.74459V2.06334C9.92629 1.3897 9.38205 0.845459 8.7084 0.845459ZM8.7084 4.4991H9.01288C11.1975 4.4991 12.971 6.27265 12.971 8.45722V9.72839C12.971 11.5514 13.5 13.3287 14.4819 14.8511H2.93488C3.9168 13.3287 4.44582 11.5514 4.44582 9.72839V8.45722C4.44582 6.27265 6.21936 4.4991 8.40393 4.4991H8.7084ZM11.1442 17.8958H8.7084H6.27264C6.27264 18.5428 6.52763 19.1632 6.98434 19.6199C7.44105 20.0766 8.0614 20.3316 8.7084 20.3316C9.3554 20.3316 9.97576 20.0766 10.4325 19.6199C10.8892 19.1632 11.1442 18.5428 11.1442 17.8958Z" fill="black"/>
</g>
<defs>
<clipPath id="clip0_148_922">
<path d="M0.183594 0.845581H17.2339V20.3317H0.183594V0.845581Z" fill="white"/>
</clipPath>
</defs>
</svg>
