<svg width="20" height="20" viewBox="0 0 20 20" fill="none" xmlns="http://www.w3.org/2000/svg">
<g clip-path="url(#clip0_85_622)">
<path d="M20 20H0V0H20V20Z" stroke="#E5E7EB"/>
<path d="M8.82031 18.2891L8.72266 18.1992L1.87891 11.8438C0.679687 10.7305 0 9.16798 0 7.53126V7.40235C0 4.65235 1.95312 2.29298 4.65625 1.77735C6.19531 1.48048 7.76953 1.83595 9.02344 2.71876C9.375 2.96876 9.70312 3.25782 10 3.58985C10.1641 3.40235 10.3398 3.23048 10.5273 3.07032C10.6719 2.94532 10.8203 2.82813 10.9766 2.71876C12.2305 1.83595 13.8047 1.48048 15.3438 1.77345C18.0469 2.28907 20 4.65235 20 7.40235V7.53126C20 9.16798 19.3203 10.7305 18.1211 11.8438L11.2773 18.1992L11.1797 18.2891C10.8594 18.5859 10.4375 18.7539 10 18.7539C9.5625 18.7539 9.14062 18.5899 8.82031 18.2891ZM9.33984 5.66407C9.32422 5.65235 9.3125 5.63673 9.30078 5.6211L8.60547 4.83985L8.60156 4.83595C7.69922 3.82423 6.33594 3.36329 5.00781 3.6172C3.1875 3.96485 1.875 5.55079 1.875 7.40235V7.53126C1.875 8.64454 2.33984 9.71095 3.15625 10.4688L10 16.8242L16.8438 10.4688C17.6602 9.71095 18.125 8.64454 18.125 7.53126V7.40235C18.125 5.5547 16.8125 3.96485 14.9961 3.6172C13.668 3.36329 12.3008 3.82813 11.4023 4.83595C11.4023 4.83595 11.4023 4.83595 11.3984 4.83985C11.3945 4.84376 11.3984 4.83985 11.3945 4.84376L10.6992 5.62501C10.6875 5.64063 10.6719 5.65235 10.6602 5.66798C10.4844 5.84376 10.2461 5.94141 10 5.94141C9.75391 5.94141 9.51562 5.84376 9.33984 5.66798V5.66407Z" fill="black"/>
</g>
<defs>
<clipPath id="clip0_85_622">
<rect width="20" height="20" fill="white"/>
</clipPath>
</defs>
</svg>
