<svg width="20" height="20" viewBox="0 0 20 20" fill="none" xmlns="http://www.w3.org/2000/svg">
<path d="M20 20H0V0H20V20Z" stroke="#E5E7EB"/>
<g clip-path="url(#clip0_85_625)">
<path d="M20 20H0V0H20V20Z" stroke="#E5E7EB"/>
<path d="M11.9922 1.35943C11.543 1.55865 11.25 2.00787 11.25 2.50005V5.00005H6.875C3.07812 5.00005 0 8.07818 0 11.8751C0 16.3008 3.18359 18.2774 3.91406 18.6758C4.01172 18.7305 4.12109 18.7501 4.23047 18.7501C4.65625 18.7501 5 18.4024 5 17.9805C5 17.6876 4.83203 17.418 4.61719 17.2188C4.25 16.8711 3.75 16.1876 3.75 15.0001C3.75 12.9297 5.42969 11.2501 7.5 11.2501H11.25V13.7501C11.25 14.2422 11.5391 14.6915 11.9922 14.8907C12.4453 15.0899 12.9688 15.0079 13.3359 14.6797L19.5859 9.05474C19.8477 8.81646 20 8.48052 20 8.12505C20 7.76959 19.8516 7.43365 19.5859 7.19537L13.3359 1.57037C12.9688 1.23834 12.4414 1.1563 11.9922 1.35943Z" fill="black"/>
</g>
<defs>
<clipPath id="clip0_85_625">
<rect width="20" height="20" fill="white"/>
</clipPath>
</defs>
</svg>
